# xmcd
# 
# Track frame offsets:
#     150
#     47285
#     97015
#     123566
# 
# Disc length: 2302
# 
# Revision: 0
# Processed by: cddbd v1.5.2PL0 Copyright (c) Steve Scherf et al.
# Submitted via: fre:ac v1.0.17
# 
DISCID=2c08fc04
DTITLE=Michael Ende - Jim Knopf und Lukas der Lokomotivfuhrer CD02
DYEAR=2014
DGENRE=Audiobook
TTITLE0=Drachenschule
TTITLE1=Der Gelbe Fluss
TTITLE2=Im Alten Elefantenhaus
TTITLE3=Neuer Titel 5
EXTD=Hörspiel
EXTT0=
EXTT1=
EXTT2=
EXTT3=
PLAYORDER=
